<svg width="26" height="22" viewBox="0 0 26 22" fill="none" xmlns="http://www.w3.org/2000/svg">
<path d="M23.6783 21.2143C24.2627 21.2143 24.7691 21.0214 25.1996 20.6403L17.8334 13.2738C17.6567 13.4004 17.4854 13.5235 17.3236 13.6405C16.7723 14.0466 16.3249 14.3635 15.9813 14.5907C15.6378 14.8183 15.1808 15.0503 14.6103 15.2872C14.0394 15.5243 13.5075 15.6425 13.0142 15.6425H12.9997H12.9853C12.4918 15.6425 11.96 15.5244 11.3891 15.2872C10.8183 15.0503 10.3613 14.8183 10.0181 14.5907C9.67458 14.3635 9.22741 14.0467 8.67588 13.6405C8.52218 13.5278 8.35172 13.4042 8.16744 13.2719L0.799805 20.6403C1.23026 21.0214 1.737 21.2143 2.32139 21.2143H23.6783V21.2143Z" fill="black"/>
<path d="M1.46556 8.63518C0.914351 8.26769 0.425549 7.84682 0 7.37274V18.5803L6.49255 12.0877C5.19367 11.1809 3.52013 10.0314 1.46556 8.63518Z" fill="black"/>
<path d="M24.5491 8.63518C22.5729 9.97277 20.8932 11.1243 19.51 12.0903L26 18.5806V7.37274C25.5839 7.83728 25.1003 8.25787 24.5491 8.63518Z" fill="black"/>
<path d="M23.6784 0.785706H2.32153C1.57645 0.785706 1.00362 1.03731 0.602338 1.53999C0.200722 2.0429 0.000244141 2.67186 0.000244141 3.42614C0.000244141 4.0354 0.266289 4.69556 0.798142 5.40679C1.32999 6.11774 1.89593 6.67617 2.49566 7.08236C2.82444 7.31465 3.81593 8.00393 5.47011 9.14997C6.36308 9.76877 7.13964 10.3081 7.80697 10.7736C8.37579 11.1699 8.86633 11.5131 9.27135 11.7979C9.31785 11.8306 9.39097 11.8829 9.48802 11.9523C9.59258 12.0274 9.72489 12.1227 9.88812 12.2405C10.2025 12.4679 10.4636 12.6516 10.6716 12.792C10.8793 12.9325 11.1309 13.0893 11.4261 13.2635C11.7211 13.4375 11.9993 13.5683 12.2605 13.6553C12.5217 13.7422 12.7634 13.7858 12.9859 13.7858H13.0003H13.0148C13.2371 13.7858 13.479 13.7422 13.7402 13.6553C14.0013 13.5683 14.2793 13.4377 14.5745 13.2635C14.8694 13.0893 15.1207 12.9321 15.3291 12.792C15.5371 12.6516 15.7982 12.4679 16.1126 12.2405C16.2755 12.1227 16.4078 12.0273 16.5124 11.9525C16.6095 11.8828 16.6825 11.8308 16.7293 11.7979C17.0448 11.5784 17.5365 11.2366 18.1976 10.7776C19.4004 9.94182 21.1719 8.71172 23.5195 7.08236C24.2255 6.58922 24.8154 5.99411 25.2895 5.29789C25.7627 4.60167 26 3.87137 26 3.10722C26 2.46878 25.7699 1.92248 25.3109 1.46748C24.8513 1.01304 24.3071 0.785706 23.6784 0.785706Z" fill="black"/>
</svg>
