<svg width="89" height="20" viewBox="0 0 89 20" fill="none" xmlns="http://www.w3.org/2000/svg">
<path d="M0.76 12.1C0.946667 12.2333 1.26 12.38 1.7 12.54C2.14 12.7 2.64667 12.78 3.22 12.78C3.78 12.78 4.22667 12.6867 4.56 12.5C4.89333 12.3 5.14667 12 5.32 11.6C5.49333 11.2 5.60667 10.7067 5.66 10.12C5.71333 9.52 5.74 8.82 5.74 8.02V0.799999H8.5V8.02C8.5 9.1 8.44 10.0867 8.32 10.98C8.21333 11.86 7.97333 12.6133 7.6 13.24C7.24 13.8667 6.71333 14.3533 6.02 14.7C5.32667 15.0467 4.39333 15.22 3.22 15.22C2.02 15.22 0.993333 14.9267 0.14 14.34L0.76 12.1ZM16.328 15.2C15.4746 15.2 14.708 15.0533 14.028 14.76C13.348 14.4667 12.768 14.0733 12.288 13.58C11.8213 13.0733 11.4613 12.4933 11.208 11.84C10.9546 11.1867 10.828 10.5 10.828 9.78C10.828 9.04667 10.9546 8.35333 11.208 7.7C11.4613 7.04667 11.8213 6.47333 12.288 5.98C12.768 5.47333 13.348 5.07333 14.028 4.78C14.708 4.48667 15.4746 4.34 16.328 4.34C17.1813 4.34 17.9413 4.48667 18.608 4.78C19.288 5.07333 19.8613 5.47333 20.328 5.98C20.808 6.47333 21.1746 7.04667 21.428 7.7C21.6813 8.35333 21.808 9.04667 21.808 9.78C21.808 10.5 21.6813 11.1867 21.428 11.84C21.1746 12.4933 20.8146 13.0733 20.348 13.58C19.8813 14.0733 19.308 14.4667 18.628 14.76C17.948 15.0533 17.1813 15.2 16.328 15.2ZM13.588 9.78C13.588 10.2467 13.6546 10.6733 13.788 11.06C13.9346 11.4333 14.128 11.76 14.368 12.04C14.6213 12.32 14.9146 12.54 15.248 12.7C15.5813 12.8467 15.9413 12.92 16.328 12.92C16.7146 12.92 17.0746 12.8467 17.408 12.7C17.7413 12.54 18.028 12.32 18.268 12.04C18.5213 11.76 18.7146 11.4267 18.848 11.04C18.9946 10.6533 19.068 10.2267 19.068 9.76C19.068 9.30667 18.9946 8.88667 18.848 8.5C18.7146 8.11333 18.5213 7.78 18.268 7.5C18.028 7.22 17.7413 7.00667 17.408 6.86C17.0746 6.7 16.7146 6.62 16.328 6.62C15.9413 6.62 15.5813 6.7 15.248 6.86C14.9146 7.02 14.6213 7.24 14.368 7.52C14.128 7.8 13.9346 8.13333 13.788 8.52C13.6546 8.90667 13.588 9.32667 13.588 9.78ZM33.9569 15H31.2769V9.12C31.2769 8.28 31.1302 7.66667 30.8369 7.28C30.5435 6.89333 30.1369 6.7 29.6169 6.7C29.3502 6.7 29.0769 6.75333 28.7969 6.86C28.5169 6.96667 28.2502 7.12 27.9969 7.32C27.7569 7.50667 27.5369 7.73333 27.3369 8C27.1369 8.26667 26.9902 8.56 26.8969 8.88V15H24.2169V4.52H26.6369V6.46C27.0235 5.79333 27.5835 5.27333 28.3169 4.9C29.0502 4.52667 29.8769 4.34 30.7969 4.34C31.4502 4.34 31.9835 4.46 32.3969 4.7C32.8102 4.94 33.1302 5.25333 33.3569 5.64C33.5835 6.02667 33.7369 6.46667 33.8169 6.96C33.9102 7.45333 33.9569 7.95333 33.9569 8.46V15ZM36.8728 17.04C37.0995 17.1067 37.3195 17.1533 37.5328 17.18C37.7461 17.22 37.9261 17.24 38.0728 17.24C38.2461 17.24 38.4061 17.2067 38.5528 17.14C38.6995 17.0733 38.8328 16.9533 38.9528 16.78C39.0728 16.62 39.1928 16.3933 39.3128 16.1C39.4328 15.8067 39.5595 15.44 39.6928 15L35.5528 4.52H38.3128L41.1528 12.68L43.6728 4.52H46.1928L41.7928 17.08C41.5395 17.8133 41.1061 18.4133 40.4928 18.88C39.8795 19.3467 39.1195 19.58 38.2128 19.58C37.9995 19.58 37.7795 19.56 37.5528 19.52C37.3395 19.4933 37.1128 19.44 36.8728 19.36V17.04Z" fill="#FF6615"/>
<path d="M48.5089 15V0.799999H54.7889C55.4422 0.799999 56.0422 0.939999 56.5889 1.22C57.1489 1.48667 57.6289 1.84667 58.0289 2.3C58.4289 2.74 58.7422 3.24667 58.9689 3.82C59.1956 4.38 59.3089 4.94667 59.3089 5.52C59.3089 6.44 59.0756 7.28 58.6089 8.04C58.1556 8.78667 57.5356 9.32667 56.7489 9.66L59.9889 15H56.8889L53.9889 10.24H51.2689V15H48.5089ZM51.2689 7.82H54.7289C54.9822 7.82 55.2156 7.76 55.4289 7.64C55.6556 7.52 55.8489 7.36 56.0089 7.16C56.1689 6.94667 56.2956 6.7 56.3889 6.42C56.4822 6.14 56.5289 5.84 56.5289 5.52C56.5289 5.18667 56.4756 4.88 56.3689 4.6C56.2622 4.32 56.1156 4.08 55.9289 3.88C55.7556 3.66667 55.5489 3.50667 55.3089 3.4C55.0822 3.28 54.8489 3.22 54.6089 3.22H51.2689V7.82ZM66.7167 15.2C65.8767 15.2 65.1167 15.06 64.4367 14.78C63.7567 14.4867 63.1767 14.0933 62.6967 13.6C62.2167 13.1067 61.8434 12.5333 61.5767 11.88C61.3234 11.2267 61.1967 10.54 61.1967 9.82C61.1967 9.07333 61.3234 8.37333 61.5767 7.72C61.8301 7.05333 62.1967 6.47333 62.6767 5.98C63.1567 5.47333 63.7367 5.07333 64.4167 4.78C65.1101 4.48667 65.8834 4.34 66.7367 4.34C67.5901 4.34 68.3501 4.48667 69.0167 4.78C69.6967 5.07333 70.2701 5.46667 70.7367 5.96C71.2167 6.45333 71.5767 7.02667 71.8167 7.68C72.0701 8.33333 72.1967 9.01333 72.1967 9.72C72.1967 9.89333 72.1901 10.06 72.1767 10.22C72.1767 10.38 72.1634 10.5133 72.1367 10.62H64.0367C64.0767 11.0333 64.1767 11.4 64.3367 11.72C64.4967 12.04 64.7034 12.3133 64.9567 12.54C65.2101 12.7667 65.4967 12.94 65.8167 13.06C66.1367 13.18 66.4701 13.24 66.8167 13.24C67.3501 13.24 67.8501 13.1133 68.3167 12.86C68.7967 12.5933 69.1234 12.2467 69.2967 11.82L71.5967 12.46C71.2101 13.26 70.5901 13.92 69.7367 14.44C68.8967 14.9467 67.8901 15.2 66.7167 15.2ZM69.4367 8.88C69.3701 8.09333 69.0767 7.46667 68.5567 7C68.0501 6.52 67.4301 6.28 66.6967 6.28C66.3367 6.28 65.9967 6.34667 65.6767 6.48C65.3701 6.6 65.0967 6.77333 64.8567 7C64.6167 7.22667 64.4167 7.5 64.2567 7.82C64.1101 8.14 64.0234 8.49333 63.9967 8.88H69.4367ZM74.4294 15V4.52H77.1094V15H74.4294ZM74.4294 3.06V0.4H77.1094V3.06H74.4294ZM84.087 15.2C83.207 15.2 82.347 15.06 81.507 14.78C80.667 14.5 79.947 14.1 79.347 13.58L80.347 11.9C80.987 12.3533 81.607 12.7 82.207 12.94C82.8204 13.1667 83.427 13.28 84.027 13.28C84.5604 13.28 84.9804 13.18 85.287 12.98C85.5937 12.78 85.747 12.4933 85.747 12.12C85.747 11.7467 85.567 11.4733 85.207 11.3C84.847 11.1267 84.2604 10.9267 83.447 10.7C82.767 10.5133 82.187 10.3333 81.707 10.16C81.227 9.98667 80.8404 9.79333 80.547 9.58C80.2537 9.35333 80.0404 9.1 79.907 8.82C79.7737 8.52667 79.707 8.18 79.707 7.78C79.707 7.24667 79.807 6.76667 80.007 6.34C80.2204 5.91333 80.5137 5.55333 80.887 5.26C81.2604 4.95333 81.6937 4.72 82.187 4.56C82.6937 4.4 83.2404 4.32 83.827 4.32C84.6137 4.32 85.347 4.43333 86.027 4.66C86.7204 4.88667 87.3537 5.25333 87.927 5.76L86.847 7.38C86.3137 6.98 85.7937 6.68667 85.287 6.5C84.7937 6.31333 84.3004 6.22 83.807 6.22C83.3537 6.22 82.9737 6.31333 82.667 6.5C82.3604 6.68667 82.207 6.98667 82.207 7.4C82.207 7.58667 82.2404 7.74 82.307 7.86C82.387 7.98 82.507 8.08667 82.667 8.18C82.827 8.27333 83.0337 8.36667 83.287 8.46C83.5537 8.54 83.8804 8.62667 84.267 8.72C84.987 8.90667 85.6004 9.09333 86.107 9.28C86.627 9.46667 87.047 9.68 87.367 9.92C87.7004 10.16 87.9404 10.44 88.087 10.76C88.247 11.0667 88.327 11.44 88.327 11.88C88.327 12.9067 87.947 13.72 87.187 14.32C86.427 14.9067 85.3937 15.2 84.087 15.2Z" fill="white"/>
</svg>
