<svg width="26" height="26" viewBox="0 0 26 26" fill="none" xmlns="http://www.w3.org/2000/svg">
<path d="M9.10003 0C4.08962 0 0 4.08962 0 9.10003C0 14.1104 4.08962 18.2001 9.10003 18.2001C11.3724 18.2001 13.4486 17.3525 15.0465 15.9657L15.6 16.5192V18.2001L22.8618 25.4618C23.5794 26.1794 24.7442 26.1794 25.4618 25.4618C26.1794 24.7442 26.1794 23.5794 25.4618 22.8618L18.2001 15.6H16.5192L15.9657 15.0465C17.3525 13.4486 18.2001 11.3724 18.2001 9.10003C18.2001 4.08962 14.1104 0 9.10003 0ZM9.10003 2.60001C12.7053 2.60001 15.6 5.49477 15.6 9.10003C15.6 12.7053 12.7053 15.6 9.10003 15.6C5.49477 15.6 2.60001 12.7053 2.60001 9.10003C2.60001 5.49477 5.49477 2.60001 9.10003 2.60001Z" fill="#C4C4C4"/>
</svg>
